# xmcd
#
# Track frame offsets:
#	150
#	14162
#	26345
#	39350
#	50192
#	60360
#	72405
#	85377
#	97050
#	111100
#	123137
#	138572
#	149200
#	165302
#	179337
#	192235
#	205977
#	219262
#	233042
#	244435
#	258280
#	268410
#	283027
#	294420
#
# Disc length: 4100 seconds
#
# Revision: 1
# Processed by: cddbd v1.5.2PL0 Copyright (c) Steve Scherf et al.
# Submitted via: audiograbber 1.83.01
#
DISCID=77100218
DTITLE=Georges Hamel - G.H. Chante 24 Succès De Marcel Martel
DYEAR=1900
DGENRE=Country
TTITLE0=Intro (Marcel à chanté) Un Coin Du Ciel(Marcel Martel-Marcel Martel)
TTITLE1=Lettre Et Souvenir(Marcel Martel-Marcel Martel)
TTITLE2=Valser Dans Tes Bras(Marcel Martel-Marcel Martel)
TTITLE3=La Chaine De Nos Coeurs(Marcel Martel-Marcel Martel)
TTITLE4=Dix Ans Passés(Marcel Martel-Marcel Martel)
TTITLE5=La Belle Gaspésie(Marcel Martel-Marcel Martel)
TTITLE6=Mon Coeur Est Comme Un Train(Marcel Martel-Marcel Martel)
TTITLE7=Shérif Homme De Loi(Marcel Martel-Marcel Martel)
TTITLE8=Infâme Destin(Marcel Martel-Marcel Martel)
TTITLE9=Quand Je T'ai Connu Belle(Marcel Martel-Marcel Martel)
TTITLE10=Bonsoir Mon Amour(Marcel Martel-Marcel Martel)
TTITLE11=Quand Nos Coeurs Seront Unis(Marcel Martel-Marcel Martel)
TTITLE12=Intro(Marcel à Chanté) Bonsoir Chérie(Marcel Martel-Marcel Martel)
TTITLE13=Hello Central(Marcel Martel-Marcel Martel)
TTITLE14=Soir De Danse(Marcel Martel-Marcel Martel)
TTITLE15=Cueillir Vos Lèvres(Marcel Martel-Marcel Martel)
TTITLE16=Prisonnière De Mon Coeur(Marcel Martel-Marcel Martel)
TTITLE17=Le Petit Indien(Marcel Martel-Marcel Martel)
TTITLE18=Amour Printanier(Marcel Martel-Marcel Martel)
TTITLE19=Mon Grand Amour(Marcel Martel-Marcel Martel)
TTITLE20=J'ai Laissé Mon Coeur(Marcel Martel-Marcel Martel)
TTITLE21=Mon Hirondelle(Marcel Martel-Marcel Martel)
TTITLE22=Tout Ce Beau Temps(Marcel Martel-Marcel Martel)
TTITLE23=Mauvaises Rêveries(Marcel Martel-Marcel Martel)
EXTD=
EXTT0=
EXTT1=
EXTT2=
EXTT3=
EXTT4=
EXTT5=
EXTT6=
EXTT7=
EXTT8=
EXTT9=
EXTT10=
EXTT11=
EXTT12=
EXTT13=
EXTT14=
EXTT15=
EXTT16=
EXTT17=
EXTT18=
EXTT19=
EXTT20=
EXTT21=
EXTT22=
EXTT23=
PLAYORDER=
